<svg xmlns="http://www.w3.org/2000/svg" viewBox="0 0 337.51 86.33"><defs><style>.a{fill:#1a237e;stroke:#1a237e;}.a,.b{stroke-miterlimit:10;stroke-width:2px;}.b{fill:#231f20;stroke:#231f20;}</style></defs><path class="a" d="M42.65,64.82l-3.52-12.6H16.87l-3.62,12.6H1.34L20.24,1H37l18.9,63.82Zm-14.5-52.1-8.4,29.69h16.7Z"/><path class="a" d="M93.5,64.82V32.49q0-8.15-6-8.15a8.64,8.64,0,0,0-5.79,2.44,42.18,42.18,0,0,0-5.83,6.64v31.4H63.91V15.21h10.3l.3,7.32a34.13,34.13,0,0,1,3.15-3.46,18.43,18.43,0,0,1,3.54-2.66,16.47,16.47,0,0,1,4.1-1.69,19.15,19.15,0,0,1,4.93-.59,16.39,16.39,0,0,1,6.64,1.25,12.75,12.75,0,0,1,4.74,3.52,15,15,0,0,1,2.85,5.46,24.91,24.91,0,0,1,1,7.16v33.3Z"/><path class="a" d="M149.73,59.4a90.15,90.15,0,0,1-5.4,11.3,36.55,36.55,0,0,1-6.18,8.11,22.89,22.89,0,0,1-7.49,4.88,24.94,24.94,0,0,1-9.25,1.64c-.82,0-1.71,0-2.67-.13s-1.94-.2-2.95-.36V74.73l1.34.22c.51.08,1,.15,1.59.2l1.68.12c.57,0,1.1,0,1.59,0a9.12,9.12,0,0,0,3.81-.79,11.77,11.77,0,0,0,3.25-2.17A16.79,16.79,0,0,0,131.76,69a26.48,26.48,0,0,0,2.15-4.22L114.23,15.21h13.28l10.3,28.12,3.08,9.09,3-8.7,10.4-28.51h12.79Z"/><path class="b" d="M208.58,64.82,191.49,26.73,188,18.53V64.82H177V1h14.75l17.43,38.33,3.08,7.47V1h10.94V64.82Z"/><path class="b" d="M247,15.21V47.53q0,4.06,1.51,6.13a5.32,5.32,0,0,0,4.59,2.08,8.53,8.53,0,0,0,5.74-2.47,42.55,42.55,0,0,0,5.83-6.67V15.21h11.92V64.82h-10.3l-.3-7.33A41.54,41.54,0,0,1,262.85,61a18.42,18.42,0,0,1-3.49,2.66,17.38,17.38,0,0,1-4.1,1.71,18.44,18.44,0,0,1-4.91.61,16.61,16.61,0,0,1-6.67-1.24,12.68,12.68,0,0,1-4.76-3.54,15.21,15.21,0,0,1-2.85-5.5,24.79,24.79,0,0,1-1-7.15V15.21Z"/><path class="b" d="M326.2,64.82V31c0-1.24,0-2.32-.1-3.25a9.69,9.69,0,0,0-.39-2.32,2.85,2.85,0,0,0-.85-1.39,2.36,2.36,0,0,0-1.54-.46c-1,0-2,.68-3,2.05a33.29,33.29,0,0,0-3.32,7V64.82h-10.2V31c0-1.24,0-2.32-.1-3.25a10.81,10.81,0,0,0-.39-2.32,2.81,2.81,0,0,0-.88-1.39,2.43,2.43,0,0,0-1.56-.46c-.85,0-1.79.68-2.83,2.05a30,30,0,0,0-3.47,7V64.82h-10.3V15.21h8.83l.2,7.23a29.22,29.22,0,0,1,2.15-3.76,12.1,12.1,0,0,1,2.29-2.57,8,8,0,0,1,2.62-1.44,10.45,10.45,0,0,1,3.14-.44q4.16,0,6.33,2.18a9.11,9.11,0,0,1,2.46,6,31.08,31.08,0,0,1,2.32-3.76,13.62,13.62,0,0,1,2.4-2.57,8,8,0,0,1,2.68-1.44,11.05,11.05,0,0,1,3.2-.44q5.41,0,8,3.79t2.59,11.2v35.6Z"/></svg>